<svg width="191" height="51" viewBox="0 0 191 51" fill="none" xmlns="http://www.w3.org/2000/svg">
<path d="M21.8788 49.85C34.3075 44.834 40.5218 39.0151 40.5218 32.3933V18.1624V5.05165C40.5218 3.18631 39.0436 1.67578 37.22 1.67578L4.20217 1.67584C2.37865 1.67584 0.900391 3.18637 0.900391 5.05171V18.1624V32.3933C0.900391 39.0151 7.11474 44.834 19.5434 49.85C20.2933 50.1526 21.1289 50.1526 21.8788 49.85Z" fill="#1F69FF" stroke="#1F69FF" stroke-width="1.80291" stroke-linecap="square"/>
<mask id="mask0_210_108" style="mask-type:alpha" maskUnits="userSpaceOnUse" x="2" y="4" width="37" height="44">
<path d="M21.7953 47.5722C33.0961 43.0468 38.7464 37.797 38.7464 31.8227V18.9836V7.15509C38.7464 5.47217 37.4023 4.10937 35.7443 4.10938L5.72284 4.10942C4.06481 4.10943 2.7207 5.47223 2.7207 7.15514V18.9836V31.8227C2.7207 37.797 8.37109 43.0468 19.6719 47.5722C20.3537 47.8452 21.1134 47.8452 21.7953 47.5722Z" fill="white"/>
</mask>
<g mask="url(#mask0_210_108)">
<path d="M34.4435 31.1988C34.4435 33.1249 33.5544 35.0839 31.3896 37.0983C29.1993 39.1365 25.7989 41.1316 21.0622 43.0314C20.9087 43.093 20.7386 43.093 20.5852 43.0314C15.8485 41.1316 12.448 39.1365 10.2577 37.0983C8.09295 35.0839 7.20381 33.1249 7.20381 31.1988V29.8176H34.4435V31.1988Z" fill="white" stroke="white" stroke-width="3.60195" stroke-linecap="square"/>
</g>
<path d="M8.94139 22.6126H5.40283V9.25549C5.40283 7.37524 6.29959 6.17871 8.52937 6.17871H17.1092V9.47526H8.94139V13.773H16.5517V17.0451H8.94139V22.6126Z" fill="white"/>
<path d="M23.1875 6.17871V17.8068C23.1875 19.4663 24.5328 20.8116 26.1924 20.8116H30.9885C32.648 20.8116 33.9933 19.4663 33.9933 17.8068V6.17871" stroke="white" stroke-width="3.60582"/>
<path d="M60.4907 23.6781H57.0376V10.7407C57.0376 8.91952 57.9127 7.7606 60.0886 7.7606H68.4613V10.9536H60.4907V15.1162H67.9173V18.2855H60.4907V23.6781Z" fill="white"/>
<path d="M80.1156 23.9856C75.409 23.9856 71.8376 20.4378 71.8376 15.7312C71.8376 11.0482 75.409 7.47678 80.1156 7.47678C84.8459 7.47678 88.4173 11.0482 88.4173 15.7312C88.4173 20.4378 84.8223 23.9856 80.1156 23.9856ZM80.1156 20.7217C82.7646 20.7217 84.8459 18.5457 84.8459 15.7312C84.8459 12.9166 82.7882 10.7407 80.1156 10.7407C77.4666 10.7407 75.3853 12.9166 75.3853 15.7312C75.3853 18.5457 77.4666 20.7217 80.1156 20.7217Z" fill="white"/>
<path d="M96.637 23.6781H93.2311V7.7606H99.3569C102.952 7.7606 105.719 9.43986 105.719 12.822C105.719 14.998 104.442 16.6772 102.408 17.2212C103.425 17.7889 104.016 18.8768 104.844 20.5324L106.381 23.6781H102.644L101.225 20.8399C100.492 19.3735 99.8063 18.593 98.0088 18.593H96.6606L96.637 23.6781ZM99.4042 10.9536H96.6843L96.6606 15.5183H99.3569C100.989 15.5183 102.171 14.6669 102.171 13.1768C102.171 11.6158 100.965 10.9536 99.4042 10.9536Z" fill="white"/>
<path d="M122.853 23.6781H114.291C112.091 23.6781 111.24 22.5428 111.24 20.7217V10.7407C111.24 8.91952 112.091 7.7606 114.291 7.7606H122.711V10.859H114.693V14.1702H122.214V17.2685H114.693V20.5797H122.853V23.6781Z" fill="white"/>
<path d="M131.58 23.6544L128.127 23.6781V7.7606H133.733C138.25 7.7606 141.017 9.86558 141.017 13.5552C141.017 17.3868 138.298 19.4681 133.922 19.4681H131.58V23.6544ZM133.827 10.9536H131.58V16.2752H133.827C136.098 16.2752 137.47 15.4001 137.47 13.5552C137.47 11.805 136.098 10.9536 133.827 10.9536Z" fill="white"/>
<path d="M149.156 7.7606V20.4851H156.582V23.6781H148.754C146.554 23.6781 145.703 22.5428 145.703 20.7217V7.7606H149.156Z" fill="white"/>
<path d="M159.454 23.6781L163.664 10.0075C164.208 8.28093 165.627 7.45312 167.117 7.45312C168.63 7.45312 170.05 8.28093 170.594 10.0075L174.804 23.6781H171.279L170.357 20.4142L163.9 20.4378L162.978 23.6781H159.454ZM166.62 11.0245L164.799 17.3395H169.458L167.661 11.0245C167.566 10.6934 167.424 10.5515 167.14 10.5515C166.88 10.5515 166.715 10.6934 166.62 11.0245Z" fill="white"/>
<path d="M179.789 16.7009L175.957 7.7606H179.671L182.935 15.7548C183.077 16.0623 183.148 16.2279 183.289 16.2279C183.431 16.2279 183.502 16.0386 183.644 15.7548L186.884 7.7606H190.621L186.743 16.7009C186.341 17.6706 185.726 18.3565 185.016 18.7822V23.6781H181.563V18.8059C180.853 18.3801 180.215 17.6943 179.789 16.7009Z" fill="white"/>
<path d="M60.9529 44.2081C57.8581 44.2081 56.4336 42.3414 56.4336 39.2959V33.09H58.1038V39.2467C58.1038 41.4245 59.0207 42.6362 60.9529 42.6362C62.885 42.6362 63.802 41.4245 63.802 39.2467V33.09H65.4721V39.2959C65.4721 42.3414 64.0312 44.2081 60.9529 44.2081Z" fill="white"/>
<path d="M71.2485 44.0607H69.6602V34.4655C69.6602 33.4667 70.3152 32.8936 71.1503 32.8936C71.8216 32.8936 72.2801 33.1555 72.5912 33.7286L77.2087 42.3578C77.2578 42.5052 77.2906 42.5707 77.3888 42.5707C77.4543 42.5707 77.4707 42.5379 77.4707 42.4397V33.09H79.059V42.7017C79.059 43.7005 78.3549 44.2572 77.6017 44.2572C76.9795 44.2572 76.4391 43.9952 76.128 43.4058L71.5269 34.7602C71.4941 34.6292 71.4614 34.5637 71.3795 34.5637C71.2812 34.5637 71.2485 34.6292 71.2485 34.7602V44.0607Z" fill="white"/>
<path d="M83.5417 33.09H85.2118V44.0607H83.5417V33.09Z" fill="white"/>
<path d="M93.591 44.2736C92.5103 44.2736 91.7899 43.6678 91.4133 42.4724L88.5314 33.09H90.2343L92.9524 42.0467C93.0671 42.4397 93.2636 42.6362 93.591 42.6362C93.9185 42.6362 94.115 42.4397 94.2296 42.0467L96.915 33.09H98.6343L95.7524 42.4724C95.3758 43.6678 94.639 44.2736 93.591 44.2736Z" fill="white"/>
<path d="M109.492 44.0607H103.351C102.222 44.0607 101.812 43.4876 101.812 42.5543V34.5965C101.812 33.6631 102.222 33.09 103.351 33.09H109.377V34.6128H103.482V37.8058H109.05V39.3286H103.482V42.5379H109.492V44.0607Z" fill="white"/>
<path d="M114.997 44.0607H113.36V33.09H117.175C119.5 33.09 121.318 34.1544 121.318 36.414C121.318 37.9695 120.368 39.0994 118.829 39.4268C119.713 39.8526 120.188 40.7532 120.827 42.0467L121.825 44.0607H120.024L119.107 42.2105C118.452 40.9169 117.912 40.0654 116.373 40.0654H115.014L114.997 44.0607ZM117.191 34.6292H115.03L115.014 38.5754H117.159C118.567 38.5754 119.598 37.8877 119.598 36.5614C119.598 35.2023 118.518 34.6292 117.191 34.6292Z" fill="white"/>
<path d="M128.882 44.2409C127.032 44.2409 125.476 43.4058 124.821 41.8993L126.229 41.2116C126.655 42.1613 127.589 42.6689 128.882 42.6689C130.159 42.6689 131.142 42.0631 131.142 40.9824C131.142 39.7707 130.028 39.5578 128.735 39.3122C127.081 38.9847 125.034 38.4444 125.034 36.1193C125.034 34.3017 126.688 32.9263 128.767 32.9263C130.438 32.9263 131.928 33.7123 132.583 35.2187L131.191 35.9391C130.749 35.0386 129.914 34.4818 128.702 34.4818C127.589 34.4818 126.688 35.1368 126.688 36.0701C126.688 37.2491 127.851 37.5111 129.177 37.7731C130.814 38.1005 132.812 38.6409 132.812 40.966C132.812 42.8982 131.093 44.2409 128.882 44.2409Z" fill="white"/>
<path d="M136.655 33.09H138.326V44.0607H136.655V33.09Z" fill="white"/>
<path d="M149.898 33.09V34.6292H146.525V44.0607H144.854V34.6292H141.498V33.09H149.898Z" fill="white"/>
<path d="M154.638 39.1485L152.002 33.09H153.787L156.144 38.69C156.325 39.0666 156.456 39.2631 156.718 39.2631C156.98 39.2631 157.127 39.0502 157.291 38.69L159.649 33.09H161.45L158.781 39.1485C158.486 39.8526 158.06 40.3111 157.553 40.5567V44.0607H155.882V40.5567C155.375 40.3274 154.949 39.8526 154.638 39.1485Z" fill="white"/>
</svg>
