<svg width="1452" height="299" viewBox="0 0 1452 299" fill="none" xmlns="http://www.w3.org/2000/svg">
<path d="M1451.32 86.4895C1451.32 88.5966 1450.42 90.7038 1448.92 91.9079C1448.92 92.2089 1448.62 92.5099 1448.62 92.5099C1441.69 98.5304 1429.65 109.367 1418.81 133.449L1386 204.491C1367.64 251.15 1352.89 298.41 1307.13 298.41C1277.93 298.41 1261.68 274.93 1261.68 251.451C1261.68 237.302 1267.4 223.154 1280.04 214.425C1286.97 209.608 1293.29 207.802 1299.31 207.802C1314.06 207.802 1324.59 219.843 1324.59 232.787C1324.59 239.41 1321.88 246.032 1315.56 251.451C1307.74 257.772 1304.43 255.364 1300.21 263.793C1299.31 265.298 1299.01 267.104 1299.01 268.91C1299.01 275.231 1304.12 282.155 1312.85 282.155C1340.25 282.155 1351.38 243.624 1367.64 204.491L1334.23 133.449C1323.39 110.872 1311.35 98.5304 1304.43 92.5099C1304.12 92.5099 1304.12 92.2089 1303.82 91.9079C1302.32 90.7038 1301.41 88.5966 1301.41 86.4895C1301.41 81.9741 1305.33 78.0608 1309.84 78.0608H1378.78C1382.99 78.0608 1387.21 81.6731 1387.21 85.8874V86.4895C1387.21 88.5966 1386.3 90.7038 1384.8 91.9079C1384.8 92.2089 1384.5 92.5099 1384.2 92.5099C1380.89 95.5202 1378.78 100.337 1378.78 106.959C1378.78 113.883 1380.89 122.612 1386 133.449L1393.53 149.102L1401.05 133.449C1406.17 122.612 1407.98 113.883 1407.98 106.959C1407.98 100.337 1406.17 95.5202 1402.56 92.5099L1401.96 91.9079C1400.75 90.7038 1399.85 88.5966 1399.55 86.4895C1399.55 81.9741 1403.46 78.0608 1408.28 78.0608H1442.9C1447.11 78.0608 1451.32 81.6731 1451.32 85.8874V86.4895Z" fill="white"/>
<path fill-rule="evenodd" clip-rule="evenodd" d="M9.50948 0.394287H85.3675C126.006 0.394287 156.71 26.8844 156.71 59.696C156.71 81.9718 142.261 101.237 120.286 111.472C110.051 115.987 86.8726 118.697 73.9286 118.697H62.4897V149.1C62.4897 173.483 65.4999 184.019 72.4235 190.039C72.6095 190.039 72.6806 190.154 72.7788 190.313C72.8395 190.411 72.9105 190.526 73.0255 190.641C74.5306 191.845 75.4337 193.953 75.4337 196.06C75.4337 200.575 71.5204 204.488 67.005 204.488H9.50948C4.6931 204.488 0.779785 200.575 0.779785 196.06C1.08081 193.953 1.98388 191.845 3.18798 190.641L3.79002 190.039C10.7136 184.019 13.7238 173.483 13.7238 149.1V55.7827C13.7238 31.3997 10.7136 20.8639 3.79002 14.8434L3.18798 14.2414C1.98388 13.0373 1.08081 10.9301 0.779785 8.82296C0.779785 4.3076 4.6931 0.394287 9.50948 0.394287ZM62.4897 102.441H74.2296C94.3982 102.441 108.546 83.1759 108.546 59.696C108.546 35.9151 94.3982 16.6496 74.2296 16.6496H62.4897V102.441Z" fill="white"/>
<path d="M284.083 169.269C284.083 196.361 247.659 205.994 215.45 205.994C181.735 205.994 153.138 190.942 150.73 171.376C150.73 170.924 150.654 170.398 150.579 169.871C150.504 169.344 150.429 168.817 150.429 168.366C150.429 156.927 159.76 151.207 169.694 151.207C182.337 151.207 196.485 159.937 196.485 177.095C196.485 185.223 205.215 191.544 216.955 191.544C229.598 191.544 237.124 187.029 237.124 178.6C237.124 169.846 222.899 164.086 206.441 157.422C183.851 148.275 157.051 137.423 157.051 114.783C157.051 88.8953 187.154 76.5533 219.363 76.5533C253.078 76.5533 276.558 91.6045 278.966 111.171C278.966 111.773 279.041 112.3 279.116 112.827C279.192 113.354 279.267 113.88 279.267 114.482C279.267 125.62 270.838 131.34 261.506 131.34C249.767 131.34 236.522 122.61 236.522 105.452C236.522 99.1301 232.909 91.0025 220.868 91.0025C211.537 91.0025 204.011 97.023 204.011 106.054C204.011 119.477 220.932 125.393 239.217 131.786C260.708 139.301 284.083 147.474 284.083 169.269Z" fill="white"/>
<path d="M433.314 91.9056C434.819 90.7015 435.722 88.5943 435.722 86.4871V85.8851C435.722 81.6707 431.507 78.0585 427.293 78.0585H392.675C387.859 78.0585 383.946 81.9718 383.946 86.4871C384.247 88.5943 385.15 90.7015 386.354 91.9056L386.956 92.5076C390.568 95.5178 392.374 100.334 392.374 106.957C392.374 113.88 390.568 122.61 385.451 133.447L377.925 149.1L370.4 133.447C365.282 122.61 363.175 113.88 363.175 106.957C363.175 100.334 365.282 95.5178 368.593 92.5076C368.894 92.5076 369.195 92.2066 369.195 91.9056C370.701 90.7015 371.604 88.5943 371.604 86.4871V85.8851C371.604 81.6707 367.389 78.0585 363.175 78.0585H294.24C289.725 78.0585 285.812 81.9718 285.812 86.4871C285.812 88.5943 286.715 90.7015 288.22 91.9056C288.335 92.0205 288.406 92.1355 288.467 92.2337C288.565 92.3926 288.636 92.5076 288.822 92.5076C295.746 98.5281 307.787 110.87 318.623 133.447L352.037 204.488C349.865 209.718 347.784 214.937 345.743 220.055C332.515 253.232 320.983 282.153 297.251 282.153C288.521 282.153 283.404 275.229 283.404 268.908C283.404 267.101 283.705 265.295 284.608 263.79C287.195 258.616 289.442 257.525 292.602 255.992C294.59 255.028 296.938 253.889 299.96 251.448C306.281 246.03 308.991 239.407 308.991 232.785C308.991 219.841 298.455 207.8 283.705 207.8C277.684 207.8 271.363 209.606 264.439 214.422C251.796 223.152 246.077 237.3 246.077 251.448C246.077 274.928 262.332 298.408 291.531 298.408C333.977 298.408 349.741 257.737 366.459 214.604C367.762 211.241 369.071 207.863 370.4 204.488L403.211 133.447C414.048 109.365 426.089 98.5281 433.013 92.5076C433.013 92.5076 433.314 92.2066 433.314 91.9056Z" fill="white"/>
<path d="M553.112 160.539C554.617 157.83 557.025 156.626 559.734 156.626C563.045 156.626 566.056 159.034 566.056 163.248C566.056 164.151 565.755 165.355 565.454 166.559C557.025 191.243 532.642 205.994 502.54 205.994C464.611 205.994 434.207 176.192 434.207 141.273C434.207 102.441 464.611 76.5533 502.54 76.5533C537.458 76.5533 554.617 98.5281 554.617 118.396C554.617 127.125 551.607 135.253 545.285 141.273C539.867 146.391 533.846 148.799 528.428 148.799C516.688 148.799 507.055 139.166 507.055 128.028C507.055 123.814 508.56 119.299 511.871 115.084C513.845 112.618 515.717 111.01 517.239 109.703C519.433 107.819 520.902 106.558 520.902 104.248C520.902 103.947 520.827 103.645 520.752 103.344C520.676 103.044 520.601 102.742 520.601 102.441C519.397 97.023 513.979 92.5076 506.754 92.5076C504.045 92.5076 501.336 93.1097 498.325 94.3137C487.187 98.8291 479.662 112.375 479.662 129.835C479.662 135.253 480.264 140.972 481.769 146.692C488.693 171.677 504.647 182.514 518.494 182.514C529.03 182.514 542.576 177.697 553.112 160.539Z" fill="white"/>
<path d="M728.482 204.488C733.298 204.488 737.211 200.575 737.211 196.06C736.91 193.953 736.007 191.845 734.803 190.641C734.688 190.526 734.617 190.411 734.556 190.313C734.458 190.154 734.387 190.039 734.201 190.039C727.278 184.019 724.267 173.483 724.267 149.1V118.697C724.267 88.8953 697.476 76.5533 670.384 76.5533C654.731 76.5533 642.991 80.7677 634.863 89.4974V13.6393C634.863 6.41476 629.144 0.394287 621.919 0.394287H583.388C578.873 0.394287 574.959 4.3076 574.959 8.82296C574.959 10.9301 575.862 13.0373 577.368 14.2414C577.483 14.3564 577.554 14.4713 577.614 14.5696C577.713 14.7284 577.784 14.8434 577.97 14.8434C584.893 20.8639 587.903 31.7008 587.903 55.7827V149.1C587.903 173.483 584.893 184.019 577.97 190.039C577.784 190.039 577.713 190.154 577.614 190.313C577.554 190.411 577.483 190.526 577.368 190.641C575.862 191.845 574.959 193.953 574.959 196.06C574.959 200.575 578.873 204.488 583.388 204.488H639.378C643.593 204.488 647.807 200.876 647.807 196.662V196.06C647.807 193.953 646.904 191.845 645.399 190.641C645.399 190.34 645.098 190.039 644.797 190.039C638.174 184.019 634.863 173.483 634.863 149.1V133.447C634.863 112.977 640.583 92.8086 656.537 92.8086C671.588 92.8086 677.308 110.87 677.308 133.447V149.1C677.308 173.483 673.996 184.019 667.073 190.039C667.073 190.039 666.772 190.34 666.772 190.641C665.267 191.845 664.363 193.953 664.363 196.06V196.662C664.363 200.876 668.578 204.488 672.792 204.488H728.482Z" fill="white"/>
<path fill-rule="evenodd" clip-rule="evenodd" d="M817.843 76.5533C855.772 76.5533 886.477 106.355 886.477 141.273C886.477 176.192 855.772 205.994 817.843 205.994C780.215 205.994 749.812 176.192 749.812 141.273C749.812 106.355 780.215 76.5533 817.843 76.5533ZM830.787 187.932C839.517 185.825 842.828 177.095 842.828 165.355C842.828 156.927 841.022 146.391 838.313 135.855C831.992 112.977 822.66 93.7117 809.716 93.7117C808.512 93.7117 807.007 94.0127 805.802 94.3137C796.772 96.7219 793.159 106.054 793.159 118.396C793.159 126.824 794.665 136.758 797.374 146.692C803.394 169.57 813.629 188.534 826.874 188.534C828.078 188.534 829.583 188.233 830.787 187.932Z" fill="white"/>
<path d="M971.65 196.06C971.65 193.953 970.747 191.845 969.242 190.641C969.127 190.526 969.056 190.411 968.995 190.313C968.897 190.154 968.826 190.039 968.64 190.039C961.716 184.019 958.706 173.483 958.706 149.1V13.6393C958.706 6.41476 952.987 0.394287 945.762 0.394287H907.231C903.017 0.394287 898.802 4.00658 898.802 8.22092V8.82296C898.802 10.9301 899.705 13.0373 901.211 14.2414C901.211 14.5424 901.512 14.8434 901.813 14.8434C908.435 20.8639 911.746 31.7008 911.746 55.7827V149.1C911.746 173.483 908.435 184.019 901.813 190.039C901.512 190.039 901.211 190.34 901.211 190.641C899.705 191.845 898.802 193.953 898.802 196.06V196.662C898.802 200.876 903.017 204.488 907.231 204.488H963.221C967.737 204.488 971.65 200.575 971.65 196.06Z" fill="white"/>
<path fill-rule="evenodd" clip-rule="evenodd" d="M1052.9 76.5533C1090.83 76.5533 1121.53 106.355 1121.53 141.273C1121.53 176.192 1090.83 205.994 1052.9 205.994C1015.27 205.994 984.869 176.192 984.869 141.273C984.869 106.355 1015.27 76.5533 1052.9 76.5533ZM1065.84 187.932C1074.57 185.825 1077.89 177.095 1077.89 165.355C1077.89 156.927 1076.08 146.391 1073.37 135.855C1067.05 112.977 1057.72 93.7117 1044.77 93.7117C1043.57 93.7117 1042.06 94.0127 1040.86 94.3137C1031.83 96.7219 1028.22 106.054 1028.22 118.396C1028.22 126.824 1029.72 136.758 1032.43 146.692C1038.45 169.57 1048.69 188.534 1061.93 188.534C1063.14 188.534 1064.64 188.233 1065.84 187.932Z" fill="white"/>
<path fill-rule="evenodd" clip-rule="evenodd" d="M1262.43 209.818C1250.64 201.815 1234.86 196.894 1218.15 194.257C1253.37 190.343 1276.55 165.659 1276.55 135.557C1276.55 104.853 1252.17 79.8675 1215.75 76.8573C1216.95 72.0409 1221.16 68.1276 1225.98 67.5256C1226.25 67.5256 1226.52 67.4647 1226.82 67.3978C1227.18 67.3158 1227.59 67.2245 1228.09 67.2245C1232.6 67.2245 1235.91 70.2348 1239.83 74.1481C1245.25 79.5665 1250.97 81.9747 1256.08 81.9747C1265.72 81.9747 1273.54 73.546 1273.54 64.5153C1273.54 58.7959 1270.53 52.7754 1263.31 48.26C1255.48 43.4436 1247.05 41.0355 1239.23 41.0355C1218.45 41.0355 1200.09 56.0866 1200.09 76.8573C1163.97 80.4696 1140.19 105.455 1140.19 135.557C1140.19 170.485 1168.24 184.235 1171.87 186.016L1172.02 186.092L1172.1 186.129C1175.06 187.765 1178.3 189.453 1181.69 191.222L1181.69 191.223C1205.13 203.452 1235.91 219.514 1235.91 248.441C1235.91 268.309 1218.45 282.156 1197.38 282.156C1185.04 282.156 1176.61 275.834 1176.61 267.706C1176.61 265.9 1176.91 264.094 1177.82 262.288C1179.95 257.127 1182.61 254.491 1185.61 251.519C1187.69 249.464 1189.93 247.248 1192.27 243.926C1195.28 239.41 1196.78 234.293 1196.78 229.476C1196.78 215.328 1184.74 201.481 1169.09 201.481C1162.77 201.481 1155.84 203.889 1148.62 209.308C1138.98 216.833 1133.26 230.078 1133.26 243.926C1133.26 269.814 1152.83 298.411 1204.01 298.411C1222.92 298.411 1241.98 294.331 1256.62 286.206C1250.02 275.727 1246.63 263.405 1246.63 251.451C1246.63 236.887 1251.42 221.545 1262.43 209.818ZM1184.44 119.001C1184.44 106.358 1188.65 96.7249 1197.68 94.0157C1198.89 93.7146 1200.09 93.4136 1201.3 93.4136C1213.34 93.4136 1223.27 109.368 1228.69 130.139C1230.8 138.567 1232 146.394 1232 153.618C1232 165.659 1228.39 174.389 1219.66 176.797C1218.45 177.098 1216.95 177.399 1215.75 177.399C1203.7 177.399 1193.47 161.746 1187.75 140.975C1185.64 133.149 1184.44 125.623 1184.44 119.001Z" fill="white"/>
<path d="M403.758 243.947V296.869H395.873V243.947H403.758Z" fill="white"/>
<path d="M425.542 296.869V243.947H434.28L454.49 275.949C455.733 277.938 458.077 281.951 460.208 285.716C460.066 281.88 459.995 277.37 459.995 275.452V243.947H467.915V296.869H459.107L441.028 268.277C439.537 265.933 436.66 261.138 433.143 255.1C433.392 261.315 433.427 265.897 433.427 268.241V296.869H425.542Z" fill="white"/>
<path d="M514.858 296.869L534.074 243.947H543.593L562.666 296.869H554.106L549.417 283.124H528.071L523.241 296.869H514.858ZM530.451 276.411H547.109L543.912 267.034C542.456 262.665 540.964 258.012 538.869 251.157C536.738 258.012 535.21 262.665 533.754 267.034L530.451 276.411Z" fill="white"/>
<path d="M597.379 296.869H580.259V243.947H597.911C613.504 243.947 622.987 253.963 622.987 270.337C622.987 286.782 613.539 296.869 597.379 296.869ZM588.144 290.014H596.881C609.206 290.014 615.067 282.662 615.067 270.337C615.067 258.083 609.206 250.802 597.414 250.802H588.144V290.014Z" fill="white"/>
<path d="M655.072 296.869L635.857 243.947H644.345L654.823 273.782C656.102 277.618 657.736 282.733 659.938 289.694C662.069 282.733 663.667 277.618 664.946 273.782L675.139 243.947H683.486L664.555 296.869H655.072Z" fill="white"/>
<path d="M701.044 296.869V243.947H736.633V250.873H708.929V266.466H734.573V273.321H708.929V289.943H736.633V296.869H701.044Z" fill="white"/>
<path d="M756.002 296.869V243.947H776.141C787.471 243.947 794.575 250.305 794.575 260.428C794.575 267.815 790.561 273.143 783.955 275.523L795.392 296.869H786.512L775.963 276.837C775.857 276.837 775.715 276.837 775.608 276.837H763.887V296.869H756.002ZM763.887 270.124H775.821C782.641 270.124 786.796 266.395 786.796 260.428C786.796 254.46 782.605 250.767 775.786 250.767H763.887V270.124Z" fill="white"/>
<path d="M809.966 250.873V243.947H851.557V250.873H834.757V296.869H826.837V250.873H809.966Z" fill="white"/>
<path d="M878.137 243.947V296.869H870.252V243.947H878.137Z" fill="white"/>
<path d="M918.248 297.721C905.569 297.721 897.755 290.902 897.755 279.714H905.64C905.675 286.711 910.328 290.831 918.248 290.831C925.423 290.831 930.147 287.528 930.147 282.378C930.147 278.293 927.341 275.949 919.989 274.209L914.199 272.823C903.509 270.302 898.82 265.862 898.82 258.545C898.82 249.239 906.314 243.095 917.68 243.095C929.081 243.095 936.292 249.452 936.611 259.788H928.975C928.584 253.715 924.251 249.985 917.574 249.985C911.18 249.985 906.67 253.359 906.67 258.154C906.67 261.99 909.511 264.192 916.792 265.933L922.511 267.283C933.131 269.804 938.032 274.386 938.032 281.951C938.032 291.47 930.254 297.721 918.248 297.721Z" fill="white"/>
<path d="M965.535 243.947V296.869H957.65V243.947H965.535Z" fill="white"/>
<path d="M987.319 296.869V243.947H996.057L1016.27 275.949C1017.51 277.938 1019.85 281.951 1021.98 285.716C1021.84 281.88 1021.77 277.37 1021.77 275.452V243.947H1029.69V296.869H1020.88L1002.81 268.277C1001.31 265.933 998.436 261.138 994.92 255.1C995.169 261.315 995.204 265.897 995.204 268.241V296.869H987.319Z" fill="white"/>
<path d="M1074 297.721C1059.65 297.721 1049.49 286.498 1049.49 270.444C1049.49 254.141 1059.79 243.095 1073.96 243.095C1085.47 243.095 1094.7 250.518 1096.37 261.28H1088.38C1086.89 254.745 1081.35 250.305 1074.07 250.305C1064.01 250.305 1057.41 258.367 1057.41 270.444C1057.41 282.449 1064.05 290.511 1074.1 290.511C1082.41 290.511 1088.88 284.828 1088.95 276.411H1075.84V269.84H1096.73V275.913C1096.73 288.522 1086.99 297.721 1074 297.721Z" fill="white"/>
</svg>
