<svg width="185" height="223" viewBox="0 0 185 223" fill="none" xmlns="http://www.w3.org/2000/svg">
<path d="M97.1868 217.992C152.396 195.711 180 169.863 180 140.448V77.2344V18.9958C180 10.7098 173.434 3.99999 165.333 4L18.6666 4.00024C10.5665 4.00025 4 10.7101 4 18.996V77.2344V140.448C4 169.863 31.6044 195.711 86.8131 217.992C90.1443 219.336 93.8557 219.336 97.1868 217.992Z" stroke="white" stroke-width="8" stroke-linecap="square"/>
<path fill-rule="evenodd" clip-rule="evenodd" d="M180 140.448C180 169.863 152.396 195.711 97.1868 217.992C93.8557 219.336 90.1443 219.336 86.8131 217.992C31.6044 195.711 4 169.863 4 140.448V77.2344V18.996C4 10.7101 10.5665 4.00025 18.6666 4.00024L165.333 4C173.434 3.99999 180 10.7098 180 18.9958V77.2344V140.448ZM161 135.135C161 157.89 139.512 177.885 96.5375 195.121C93.9445 196.161 91.0555 196.161 88.4625 195.121C45.4875 177.885 24 157.89 24 135.135V121H161V135.135ZM94.9914 75.6523V24H111.009V75.6523C111.009 78.601 113.399 80.9914 116.348 80.9914H137.652C140.601 80.9914 142.991 78.601 142.991 75.6523V24H159.009V75.6523C159.009 87.4471 149.447 97.0086 137.652 97.0086H116.348C104.553 97.0086 94.9914 87.4471 94.9914 75.6523ZM24 97H39.7184V72.2689H73.5238V57.734H39.7184V38.6434H76V24H37.8882C27.9834 24 24 29.315 24 37.6672V97Z" fill="white"/>
</svg>
