<svg width="1200" height="600" viewBox="0 0 1200 600" fill="none" xmlns="http://www.w3.org/2000/svg">
<defs>
<linearGradient id="pcbg" x1="0" y1="0" x2="1200" y2="600" gradientUnits="userSpaceOnUse">
<stop offset="0" stop-color="#0a1530"/><stop offset="0.55" stop-color="#050a18"/><stop offset="1" stop-color="#020308"/>
</linearGradient>
<radialGradient id="pcglow" cx="0.3" cy="0.16" r="0.75">
<stop offset="0" stop-color="#1c4fff" stop-opacity="0.42"/><stop offset="1" stop-color="#1c4fff" stop-opacity="0"/>
</radialGradient>
</defs>
<rect width="1200" height="600" fill="url(#pcbg)"/>
<ellipse cx="320" cy="110" rx="560" ry="380" fill="url(#pcglow)"/>
<g transform="translate(345,246) scale(3.0)">
  <path
    d="M44.2881 12.1135C45.8138 12.1135 47.1173 12.6781 48.1987 13.8073C49.28 14.9218 49.8207 16.2856 49.8207 17.8987C49.8207 19.5265 49.28 20.8977 48.1987 22.0122C47.1173 23.1267 45.8138 23.684 44.2881 23.684C42.5994 23.684 41.3033 23.0681 40.3997 21.8362V27.7975H38V12.3994H40.3997V13.9832C41.3033 12.7367 42.5994 12.1135 44.2881 12.1135ZM41.3996 20.4284C42.0661 21.0883 42.9031 21.4183 43.9104 21.4183C44.9176 21.4183 45.7546 21.0883 46.4211 20.4284C47.0877 19.7538 47.421 18.9106 47.421 17.8987C47.421 16.8869 47.0877 16.051 46.4211 15.3911C45.7546 14.7165 44.9176 14.3792 43.9104 14.3792C42.9031 14.3792 42.0661 14.7165 41.3996 15.3911C40.733 16.051 40.3997 16.8869 40.3997 17.8987C40.3997 18.9106 40.733 19.7538 41.3996 20.4284Z"
    fill="#ffffff" />
  <path
    d="M54.3953 14.2472C55.0026 12.8834 56.1432 12.2015 57.8171 12.2015V14.7751C56.8987 14.7165 56.0988 14.9364 55.4174 15.435C54.736 15.919 54.3953 16.7255 54.3953 17.8547V23.398H51.9956V12.3994H54.3953V14.2472Z"
    fill="#ffffff" />
  <path
    d="M64.3131 23.684C62.6837 23.684 61.2987 23.1267 60.1581 22.0122C59.0175 20.8977 58.4472 19.5265 58.4472 17.8987C58.4472 16.2709 59.0175 14.8998 60.1581 13.7853C61.2987 12.6707 62.6837 12.1135 64.3131 12.1135C65.9573 12.1135 67.3424 12.6707 68.4681 13.7853C69.6087 14.8998 70.179 16.2709 70.179 17.8987C70.179 19.5265 69.6087 20.8977 68.4681 22.0122C67.3424 23.1267 65.9573 23.684 64.3131 23.684ZM61.8468 20.3844C62.5133 21.0443 63.3355 21.3743 64.3131 21.3743C65.2908 21.3743 66.1129 21.0443 66.7795 20.3844C67.446 19.7245 67.7793 18.8959 67.7793 17.8987C67.7793 16.9015 67.446 16.073 66.7795 15.413C66.1129 14.7531 65.2908 14.4232 64.3131 14.4232C63.3355 14.4232 62.5133 14.7531 61.8468 15.413C61.1802 16.073 60.8469 16.9015 60.8469 17.8987C60.8469 18.8959 61.1802 19.7245 61.8468 20.3844Z"
    fill="#ffffff" />
  <path
    d="M81.4781 23.398H78.7007L75.9455 19.6365L73.1681 23.398H70.3684L74.5457 17.7448L70.5906 12.3994H73.368L75.9233 15.875L78.4785 12.3994H81.2781L77.3231 17.7667L81.4781 23.398Z"
    fill="#ffffff" />
  <path
    d="M90.5776 12.3994H93.1329L88.8667 23.75C87.8002 26.5949 85.993 27.9441 83.4452 27.7975V25.5757C84.2007 25.6197 84.808 25.4584 85.2672 25.0918C85.7264 24.7399 86.1041 24.1826 86.4004 23.42L86.5115 23.2L81.801 12.3994H84.4229L87.7335 20.3844L90.5776 12.3994Z"
    fill="#ffffff" />
  <path d="M94.3549 17.8547V15.567H102.576V17.8547H94.3549Z" fill="#ffffff" />
  <path
    d="M110.77 23.684C109.096 23.684 107.696 23.1267 106.57 22.0122C105.459 20.8977 104.904 19.5265 104.904 17.8987C104.904 16.2563 105.459 14.8851 106.57 13.7853C107.696 12.6707 109.096 12.1135 110.77 12.1135C111.851 12.1135 112.836 12.3701 113.725 12.8834C114.614 13.3966 115.28 14.0859 115.725 14.9511L113.658 16.139C113.407 15.611 113.021 15.2004 112.503 14.9071C111.999 14.5992 111.414 14.4452 110.748 14.4452C109.77 14.4452 108.948 14.7751 108.281 15.435C107.629 16.095 107.304 16.9162 107.304 17.8987C107.304 18.8813 107.629 19.7025 108.281 20.3624C108.948 21.0223 109.77 21.3523 110.748 21.3523C111.399 21.3523 111.984 21.1983 112.503 20.8903C113.036 20.5824 113.436 20.1718 113.703 19.6585L115.769 20.8244C115.295 21.7042 114.614 22.4008 113.725 22.9141C112.836 23.4274 111.851 23.684 110.77 23.684Z"
    fill="#ffffff" />
  <path
    d="M123.347 12.1135C124.621 12.1135 125.651 12.5168 126.436 13.3233C127.221 14.1299 127.614 15.2371 127.614 16.6449V23.398H125.214V16.8869C125.214 16.0656 124.992 15.435 124.547 14.9951C124.103 14.5552 123.496 14.3352 122.725 14.3352C121.881 14.3352 121.2 14.5992 120.681 15.1271C120.163 15.6404 119.903 16.4323 119.903 17.5028V23.398H117.504V8H119.903V13.8073C120.629 12.6781 121.777 12.1135 123.347 12.1135Z"
    fill="#ffffff" />
  <path
    d="M132.086 18.9106C132.264 19.7465 132.671 20.3917 133.308 20.8464C133.945 21.2863 134.723 21.5063 135.641 21.5063C136.915 21.5063 137.87 21.0517 138.507 20.1424L140.485 21.2863C139.389 22.8848 137.767 23.684 135.619 23.684C133.812 23.684 132.353 23.1414 131.242 22.0562C130.131 20.9563 129.575 19.5705 129.575 17.8987C129.575 16.2563 130.123 14.8851 131.219 13.7853C132.316 12.6707 133.723 12.1135 135.441 12.1135C137.071 12.1135 138.404 12.6781 139.441 13.8073C140.492 14.9364 141.018 16.3076 141.018 17.9207C141.018 18.17 140.989 18.5 140.929 18.9106H132.086ZM132.064 16.9748H138.596C138.433 16.0803 138.056 15.4057 137.463 14.9511C136.885 14.4965 136.204 14.2692 135.419 14.2692C134.53 14.2692 133.79 14.5112 133.197 14.9951C132.604 15.479 132.227 16.139 132.064 16.9748Z"
    fill="#ffffff" />
  <path
    d="M151.864 12.3994H154.263V23.398H151.864V21.8142C150.96 23.0607 149.664 23.684 147.975 23.684C146.449 23.684 145.146 23.1267 144.065 22.0122C142.983 20.883 142.443 19.5119 142.443 17.8987C142.443 16.2709 142.983 14.8998 144.065 13.7853C145.146 12.6707 146.449 12.1135 147.975 12.1135C149.664 12.1135 150.96 12.7294 151.864 13.9612V12.3994ZM145.842 20.4284C146.509 21.0883 147.346 21.4183 148.353 21.4183C149.36 21.4183 150.197 21.0883 150.864 20.4284C151.53 19.7538 151.864 18.9106 151.864 17.8987C151.864 16.8869 151.53 16.051 150.864 15.3911C150.197 14.7165 149.36 14.3792 148.353 14.3792C147.346 14.3792 146.509 14.7165 145.842 15.3911C145.175 16.051 144.842 16.8869 144.842 17.8987C144.842 18.9106 145.175 19.7538 145.842 20.4284Z"
    fill="#ffffff" />
  <path
    d="M163.348 12.1135C164.874 12.1135 166.178 12.6781 167.259 13.8073C168.34 14.9218 168.881 16.2856 168.881 17.8987C168.881 19.5265 168.34 20.8977 167.259 22.0122C166.178 23.1267 164.874 23.684 163.348 23.684C161.66 23.684 160.364 23.0681 159.46 21.8362V27.7975H157.06V12.3994H159.46V13.9832C160.364 12.7367 161.66 12.1135 163.348 12.1135ZM160.46 20.4284C161.126 21.0883 161.963 21.4183 162.971 21.4183C163.978 21.4183 164.815 21.0883 165.481 20.4284C166.148 19.7538 166.481 18.9106 166.481 17.8987C166.481 16.8869 166.148 16.051 165.481 15.3911C164.815 14.7165 163.978 14.3792 162.971 14.3792C161.963 14.3792 161.126 14.7165 160.46 15.3911C159.793 16.051 159.46 16.8869 159.46 17.8987C159.46 18.9106 159.793 19.7538 160.46 20.4284Z"
    fill="#ffffff" />
  <path
    d="M23.6252 15.1814C23.8847 14.8503 24.0447 14.4542 24.0868 14.0381C24.129 13.622 24.0517 13.2025 23.8637 12.8275C23.7129 12.5226 23.4938 12.2553 23.2229 12.0458C22.9521 11.8363 22.6365 11.6899 22.2999 11.6178C21.9634 11.5456 21.6146 11.5495 21.2798 11.6292C20.945 11.7089 20.6328 11.8623 20.3669 12.0779C20.1369 12.2619 19.9466 12.4893 19.8071 12.7468C19.6677 13.0042 19.5819 13.2866 19.5549 13.5772C19.5359 13.8205 19.4677 14.0577 19.3544 14.2748C19.2411 14.492 19.085 14.6846 18.8951 14.8415L18.6363 15.0414C18.477 15.1702 18.2868 15.2565 18.0839 15.2921C17.881 15.3276 17.6722 15.3113 17.4776 15.2445C17.2829 15.1778 17.109 15.063 16.9724 14.911C16.8358 14.7591 16.7412 14.5751 16.6975 14.3768C16.6975 14.3768 16.3423 12.8275 16.1088 11.818C16.0584 11.5755 16.0576 11.3255 16.1064 11.0827C16.1552 10.8399 16.2526 10.609 16.393 10.4037C16.5548 10.1579 16.6651 9.88269 16.7173 9.59433C16.7696 9.30597 16.7629 9.01023 16.6975 8.72447C16.5792 8.16502 16.2485 7.67112 15.773 7.34352C15.2975 7.01592 14.713 6.87931 14.1387 6.96156C13.5644 7.0438 13.0436 7.3387 12.6826 7.78611C12.3215 8.23351 12.1474 8.79969 12.1958 9.36916C12.2208 9.72959 12.3346 10.0786 12.5274 10.386C12.7202 10.6934 12.9861 10.9499 13.3022 11.1333C13.5084 11.2616 13.6855 11.4303 13.8226 11.6289C13.9597 11.8275 14.0538 12.0518 14.099 12.2878C14.2563 13.0474 14.4695 14.0019 14.4695 14.0019C14.5165 14.2163 14.5026 14.4393 14.4295 14.6464C14.3563 14.8535 14.2266 15.0368 14.0547 15.1761C13.8828 15.3155 13.6752 15.4056 13.4547 15.4365C13.2343 15.4674 13.0094 15.4379 12.8048 15.3513C12.8048 15.3513 11.8608 14.9415 11.13 14.6366C10.9023 14.5339 10.6978 14.3871 10.5286 14.2052C10.3595 14.0232 10.2292 13.8096 10.1454 13.5772C10.013 13.2527 9.8055 12.9632 9.53936 12.7318C9.27323 12.5003 8.95584 12.3333 8.61254 12.2441C8.26923 12.1548 7.9095 12.1458 7.56202 12.2178C7.21455 12.2897 6.88896 12.4406 6.61122 12.6584C6.33347 12.8762 6.11127 13.155 5.96231 13.4723C5.81336 13.7897 5.74178 14.137 5.7533 14.4864C5.76481 14.8359 5.8591 15.1779 6.02864 15.4851C6.19817 15.7923 6.43826 16.0562 6.72976 16.2559C7.05 16.4664 7.4176 16.5968 7.80064 16.6357C8.17769 16.6745 8.55855 16.6177 8.90703 16.4708C9.14001 16.382 9.38894 16.3411 9.63856 16.3506C9.88817 16.36 10.1332 16.4196 10.3586 16.5257L12.7338 17.5702C12.9208 17.6528 13.0834 17.7809 13.2063 17.9424C13.3292 18.1039 13.4083 18.2936 13.4362 18.4936C13.4641 18.6935 13.4399 18.8971 13.3659 19.0853C13.2918 19.2735 13.1703 19.4401 13.0129 19.5693L12.6881 19.8392C12.3292 20.1358 11.866 20.2812 11.399 20.244H11.2924C10.8874 20.2027 10.4785 20.2691 10.1084 20.4361C9.73822 20.6032 9.42029 20.8649 9.18765 21.194C8.95502 21.523 8.81617 21.9075 8.78557 22.3073C8.75496 22.7071 8.83371 23.1077 9.01362 23.4674C9.16569 23.7712 9.3855 24.0373 9.65663 24.2458C9.92775 24.4542 10.2432 24.5997 10.5794 24.6713C10.9156 24.7429 11.2639 24.7388 11.5983 24.6593C11.9327 24.5797 12.2445 24.4269 12.5105 24.2121C12.7396 24.0273 12.9293 23.7997 13.0687 23.5424C13.2081 23.2851 13.2943 23.0031 13.3225 22.7128C13.3402 22.4677 13.4077 22.2286 13.521 22.0096C13.6343 21.7907 13.7912 21.5965 13.9823 21.4384C14.5405 21.0036 15.2206 20.4389 15.2206 20.4389C15.468 20.2403 15.7851 20.1461 16.1027 20.177C16.4204 20.2079 16.7126 20.3614 16.9158 20.6038L17.1441 20.8837C18.0601 21.986 18.7334 23.2639 19.1211 24.6362C19.5088 26.0084 19.6026 27.4451 19.3964 28.8549C19.1902 30.2647 18.6887 31.6169 17.9235 32.8257C17.1583 34.0345 16.1463 35.0734 14.9516 35.8765L14.911 35.9015C14.911 35.9015 0 26.1611 0 14.7466C0 10.8498 1.57205 7.11256 4.37032 4.35709C7.16858 1.60162 10.9638 0.0536137 14.9212 0.0536137C18.8785 0.0536137 22.6738 1.60162 25.4721 4.35709C28.2703 7.11256 29.8424 10.8498 29.8424 14.7466C29.8424 15.1264 29.8424 15.5012 29.7967 15.876C29.3399 21.2535 22.3869 23.2975 18.9154 19.1195L18.8748 19.0695C18.6731 18.826 18.5775 18.5137 18.6089 18.2009C18.6403 17.8881 18.7961 17.6003 19.0423 17.4003L20.235 16.4258C20.4243 16.2764 20.6425 16.1666 20.8764 16.103C21.1102 16.0395 21.3548 16.0234 21.5951 16.056C21.9809 16.0904 22.3693 16.0283 22.7242 15.8754C23.0791 15.7225 23.3891 15.4838 23.6252 15.1814Z"
    fill="#0452FB" />
</g>
</svg>
