<svg width="170" height="28" viewBox="0 0 170 28" fill="none" xmlns="http://www.w3.org/2000/svg">
<g id="logo {anty}">
<path id="Vector" d="M39.4611 6.58282H44.3472C46.6839 6.58282 48.4542 7.17306 49.658 8.35214C50.8616 9.53234 51.4637 11.2171 51.4637 13.4064V14.5931C51.4637 16.7547 50.8546 18.433 49.6364 19.6263C48.4183 20.8203 46.6553 21.4172 44.347 21.4172H39.4611V6.58282ZM42.0103 8.82898V19.1705H44.3472C45.82 19.1705 46.9281 18.7961 47.6716 18.0477C48.4154 17.2987 48.7868 16.1473 48.7868 14.5931V13.4064C48.7868 11.8673 48.4115 10.719 47.661 9.96271C46.9104 9.20755 45.8054 8.82898 44.347 8.82898H42.0103Z" fill="#2E2832"/>
<path id="Vector_2" d="M58.2612 21.6082C56.6608 21.6082 55.4112 21.156 54.5119 20.2519C53.6123 19.3478 53.1632 18.083 53.1632 16.4584V15.78C53.1632 14.9747 53.2799 14.2546 53.5135 13.6184C53.747 12.9828 54.0872 12.4424 54.5332 11.9975C54.9792 11.5526 55.5139 11.2135 56.137 10.9802C56.7598 10.7473 57.468 10.6302 58.2612 10.6302C59.8617 10.6302 61.1113 11.083 62.0108 11.9866C62.9102 12.8907 63.3601 14.1554 63.3601 15.78V16.4584C63.3601 17.2637 63.2433 17.9839 63.0095 18.62C62.7757 19.2556 62.4361 19.796 61.9898 20.241C61.5435 20.6859 61.0052 21.025 60.375 21.2582C59.7449 21.4909 59.0401 21.6082 58.2612 21.6082ZM58.2612 19.3189C59.0685 19.3189 59.6882 19.086 60.1202 18.6198C60.5521 18.1533 60.7683 17.4331 60.7683 16.4582V15.7797C60.7683 14.8193 60.5448 14.1022 60.0991 13.629C59.6531 13.1558 59.0401 12.9192 58.2615 12.9192C57.4542 12.9192 56.8345 13.1522 56.4028 13.6184C55.9706 14.0849 55.755 14.805 55.755 15.78V16.4584C55.755 17.4188 55.9776 18.1359 56.4239 18.6091C56.8702 19.0823 57.4826 19.3189 58.2612 19.3189Z" fill="#2E2832"/>
<path id="Vector_3" d="M66.3867 20.5167C65.7846 19.9161 65.4837 19.0512 65.4837 17.9206V6.58282H67.9478V17.6663C67.9478 18.2168 68.0683 18.62 68.3091 18.8743C68.5499 19.1285 68.9179 19.2559 69.4138 19.2559H69.9449V21.4175H68.9676C67.8488 21.4172 66.9885 21.1168 66.3867 20.5167Z" fill="#2E2832"/>
<path id="Vector_4" d="M77.104 21.6082C75.7724 21.6082 74.7387 21.191 74.0022 20.3574V25.6556H71.5381V10.8209H73.4711L73.7049 12.2623C74.0729 11.7113 74.5439 11.3014 75.1173 11.0326C75.691 10.7646 76.3529 10.6299 77.104 10.6299C77.7128 10.6299 78.2756 10.7397 78.7928 10.9584C79.3096 11.1782 79.7519 11.503 80.1205 11.9333C80.4885 12.3648 80.779 12.9016 80.9912 13.5445C81.2036 14.1873 81.31 14.9321 81.31 15.7797V16.4581C81.31 17.3057 81.2036 18.0474 80.9912 18.6833C80.7787 19.3189 80.4848 19.8562 80.1095 20.2939C79.7343 20.7321 79.2919 21.0605 78.7819 21.2789C78.2722 21.4981 77.7128 21.6082 77.104 21.6082ZM76.3602 19.3189C77.1104 19.3189 77.6915 19.0932 78.1024 18.641C78.5127 18.1888 78.7185 17.4614 78.7185 16.4581V15.7797C78.7185 14.8047 78.506 14.0846 78.0813 13.6181C77.6564 13.1522 77.0829 12.9189 76.3605 12.9189C75.6809 12.9189 75.1249 13.1519 74.6926 13.6181C74.2607 14.0846 74.0305 14.7627 74.0022 15.6529V16.4581C74.0022 17.3903 74.2256 18.1001 74.6713 18.5878C75.1173 19.0753 75.6806 19.3189 76.3602 19.3189Z" fill="#2E2832"/>
<path id="Vector_5" d="M83.4345 6.58282H85.8989V11.7326C86.6068 10.9979 87.5908 10.6302 88.8517 10.6302C90.1546 10.6302 91.1704 11.0152 91.8999 11.7855C92.6294 12.5558 92.994 13.7172 92.994 15.2715V21.4172H90.5299V15.2715C90.5299 14.4945 90.3421 13.9079 89.9668 13.5125C89.5913 13.1172 89.0779 12.9192 88.4267 12.9192C87.6619 12.9192 87.0564 13.1239 86.6104 13.5338C86.1641 13.9437 85.9267 14.4875 85.8989 15.1654V21.4172H83.4345V6.58282Z" fill="#2E2832"/>
<path id="Vector_6" d="M96.9875 9.54966C96.5342 9.54966 96.1556 9.39818 95.851 9.09382C95.5459 8.7903 95.3941 8.4123 95.3941 7.9601C95.3941 7.5079 95.5459 7.13018 95.851 6.82638C96.1553 6.52286 96.5342 6.37054 96.9875 6.37054C97.4262 6.37054 97.8021 6.52258 98.1136 6.82638C98.4246 7.1299 98.5807 7.5079 98.5807 7.9601C98.5807 8.4123 98.4246 8.79002 98.1136 9.09382C97.8021 9.39818 97.4262 9.54966 96.9875 9.54966ZM95.7556 10.8209H98.2197V21.4172H95.7556V10.8209Z" fill="#2E2832"/>
<path id="Vector_7" d="M101.088 10.8209H103.02L103.212 12.0075C104.004 11.0894 105.102 10.6299 106.505 10.6299C107.807 10.6299 108.823 11.0149 109.553 11.7852C110.282 12.5555 110.647 13.7169 110.647 15.2712V21.4172H108.183V15.2715C108.183 14.4945 107.994 13.9079 107.619 13.5125C107.244 13.1172 106.731 12.9192 106.08 12.9192C105.315 12.9192 104.709 13.1239 104.263 13.5338C103.817 13.9437 103.579 14.4875 103.552 15.1654V21.4172H101.087V10.8209H101.088Z" fill="#2E2832"/>
<path id="Vector_8" d="M119.569 7.93912H118.592C116.977 7.93912 116.17 8.78668 116.17 10.4824V13.2367C116.17 13.8729 116.074 14.4416 115.883 14.9428C115.692 15.4451 115.27 15.8368 114.619 16.1193C114.945 16.275 115.21 16.4514 115.415 16.6494C115.621 16.8473 115.78 17.0694 115.893 17.3163C116.007 17.5638 116.081 17.8287 116.117 18.1112C116.152 18.3938 116.17 18.6908 116.17 19.0011V21.756C116.17 23.4517 116.977 24.2992 118.592 24.2992H119.569V25.6556H118.592C115.986 25.6556 114.683 24.3552 114.683 21.756V19.0008C114.683 18.2524 114.516 17.712 114.184 17.3799C113.851 17.0478 113.451 16.8468 112.984 16.7756V15.4622C113.451 15.3916 113.851 15.19 114.184 14.8579C114.516 14.5258 114.683 13.9857 114.683 13.2364V10.4821C114.683 7.88284 115.986 6.58252 118.592 6.58252H119.569V7.93912Z" fill="#2E2832"/>
<path id="Vector_9" d="M124.774 21.5653C123.712 21.5653 122.897 21.2937 122.331 20.7497C121.764 20.2059 121.481 19.4536 121.481 18.4926C121.481 17.9838 121.563 17.5213 121.725 17.1041C121.888 16.6874 122.15 16.338 122.511 16.0555C122.873 15.773 123.336 15.5537 123.903 15.398C124.469 15.2429 125.149 15.1651 125.942 15.1651H128.364V14.2114C128.364 13.449 128.176 12.887 127.801 12.5266C127.426 12.1668 126.806 11.9862 125.942 11.9862C125.163 11.9862 124.579 12.1383 124.189 12.4421C123.8 12.7464 123.577 13.1592 123.521 13.6819H122.012C122.04 13.2437 122.14 12.8416 122.309 12.474C122.479 12.1064 122.727 11.7888 123.053 11.5203C123.379 11.2518 123.782 11.0435 124.264 10.8951C124.746 10.7472 125.305 10.673 125.942 10.673C127.202 10.673 128.155 10.9838 128.8 11.6052C129.444 12.227 129.766 13.0962 129.766 14.2117V21.4172H128.682L128.47 19.4253C128.101 20.1032 127.596 20.6296 126.951 21.0039C126.306 21.378 125.581 21.5653 124.774 21.5653ZM124.88 20.2516C125.361 20.2516 125.815 20.1634 126.239 19.9867C126.664 19.8103 127.036 19.57 127.355 19.266C127.673 18.9624 127.921 18.6091 128.098 18.2064C128.275 17.8038 128.364 17.3765 128.364 16.9243V16.4371H125.942C124.851 16.4371 124.076 16.6278 123.616 17.0089C123.156 17.3905 122.925 17.8853 122.925 18.4926C122.925 19.0294 123.092 19.4566 123.425 19.7747C123.757 20.0922 124.243 20.2516 124.88 20.2516Z" fill="#2E2832"/>
<path id="Vector_10" d="M133.271 10.8209H134.354L134.524 12.5588C134.878 11.9515 135.356 11.4856 135.958 11.1602C136.56 10.8354 137.257 10.673 138.05 10.673C139.268 10.673 140.228 11.0407 140.928 11.7746C141.63 12.5093 141.98 13.6041 141.98 15.0595V21.4172H140.578V15.0598C140.578 14.0288 140.337 13.2586 139.856 12.7495C139.374 12.2408 138.702 11.9865 137.838 11.9865C136.903 11.9865 136.149 12.255 135.575 12.7918C135.002 13.3291 134.701 14.042 134.672 14.9324V21.4172H133.27V10.8209H133.271Z" fill="#2E2832"/>
<path id="Vector_11" d="M143.999 10.8209H145.91V7.85455H147.312V10.8209H150.159V12.0926H147.312V18.4503C147.312 19.5804 147.836 20.1454 148.885 20.1454H150.372V21.4172H148.714C147.794 21.4172 147.096 21.1806 146.622 20.7074C146.148 20.2342 145.91 19.5381 145.91 18.62V12.0929H143.999V10.8209Z" fill="#2E2832"/>
<path id="Vector_12" d="M156.468 21.4172L152.071 10.8209H153.643L157.233 19.6792L160.568 10.8209H162.055L156.319 25.6555H154.832L156.468 21.4172Z" fill="#2E2832"/>
<path id="Vector_13" d="M163.415 24.299H164.392C166.006 24.299 166.814 23.4514 166.814 21.7557V19.0008C166.814 18.3652 166.909 17.7965 167.1 17.2948C167.291 16.7939 167.712 16.4013 168.364 16.1188C168.038 15.9637 167.773 15.7867 167.568 15.5887C167.362 15.3913 167.203 15.1687 167.09 14.9212C166.977 14.6743 166.902 14.4094 166.867 14.1269C166.832 13.8443 166.814 13.5481 166.814 13.2365V10.4821C166.814 8.78642 166.007 7.93886 164.392 7.93886H163.415V6.58282H164.392C166.998 6.58282 168.301 7.88314 168.301 10.4824V13.2367C168.301 13.9857 168.467 14.5267 168.8 14.8588C169.132 15.1903 169.533 15.3919 170 15.4625V16.7759C169.533 16.8471 169.132 17.0481 168.8 17.3802C168.467 17.7117 168.301 18.2524 168.301 19.0011V21.756C168.301 24.3553 166.998 25.6556 164.392 25.6556H163.415V24.299H163.415Z" fill="#2E2832"/>
<path id="Vector_14" d="M0 14C0 0 0 0 14.0341 0C28.0682 0 28.0682 0 28.0682 14C28.0682 28 28.0682 28 14.0341 28C0 28 0 28 0 14Z" fill="url(#paint0_linear_3214_318)"/>
<path id="Vector_15" d="M19.8013 13.4083V14.6006C19.8013 16.7549 19.1905 18.4327 17.9693 19.6333C16.7565 20.8255 14.9952 21.4175 12.6849 21.4175H8.78143C9.80789 20.9759 10.3213 20.0222 10.3213 18.5564V16.3313C10.3213 15.722 10.454 15.2891 10.7198 15.0158C10.9943 14.7507 11.3129 14.5916 11.6932 14.53V13.4708C11.3129 13.4086 10.9943 13.2501 10.7198 12.985C10.454 12.7111 10.3213 12.2788 10.3213 11.6695V9.44383C10.3213 7.97831 9.80789 7.02463 8.78143 6.58307H12.6846C15.0216 6.58307 16.7918 7.17471 17.9954 8.35799C19.1998 9.53175 19.8013 11.2185 19.8013 13.4083Z" fill="white"/>
</g>
<defs>
<linearGradient id="paint0_linear_3214_318" x1="14.0341" y1="0" x2="14.0341" y2="28" gradientUnits="userSpaceOnUse">
<stop offset="0.0056" stop-color="#B645EE"/>
<stop offset="1" stop-color="#9B26B6"/>
</linearGradient>
</defs>
</svg>
